<?xml version="1.0" encoding="UTF-8" standalone="no"?>
<!-- Created with Inkscape (http://www.inkscape.org/) -->

<svg
   width="160mm"
   height="90mm"
   viewBox="0 0 160 90"
   version="1.1"
   id="svg5"
   inkscape:version="1.1 (c68e22c387, 2021-05-23)"
   sodipodi:docname="drawing-1.svg"
   xmlns:inkscape="http://www.inkscape.org/namespaces/inkscape"
   xmlns:sodipodi="http://sodipodi.sourceforge.net/DTD/sodipodi-0.dtd"
   xmlns:xlink="http://www.w3.org/1999/xlink"
   xmlns="http://www.w3.org/2000/svg"
   xmlns:svg="http://www.w3.org/2000/svg">
  <sodipodi:namedview
     id="namedview7"
     pagecolor="#ffffff"
     bordercolor="#666666"
     borderopacity="1.0"
     inkscape:pageshadow="2"
     inkscape:pageopacity="0.0"
     inkscape:pagecheckerboard="0"
     inkscape:document-units="mm"
     showgrid="false"
     inkscape:zoom="0.47118628"
     inkscape:cx="11.672666"
     inkscape:cy="376.70876"
     inkscape:window-width="1920"
     inkscape:window-height="1017"
     inkscape:window-x="-8"
     inkscape:window-y="1072"
     inkscape:window-maximized="1"
     inkscape:current-layer="layer1"
     fit-margin-top="0"
     fit-margin-left="0"
     fit-margin-right="0"
     fit-margin-bottom="0" />
  <defs
     id="defs2">
    <linearGradient
       id="linearGradient4956"
       inkscape:swatch="solid">
      <stop
         style="stop-color:#000000;stop-opacity:1;"
         offset="0"
         id="stop4954" />
    </linearGradient>
    <filter
       id="mask-powermask-path-effect2834_inverse"
       inkscape:label="filtermask-powermask-path-effect2834"
       style="color-interpolation-filters:sRGB"
       height="100"
       width="100"
       x="-50"
       y="-50">
      <feColorMatrix
         id="mask-powermask-path-effect2834_primitive1"
         values="1"
         type="saturate"
         result="fbSourceGraphic" />
      <feColorMatrix
         id="mask-powermask-path-effect2834_primitive2"
         values="-1 0 0 0 1 0 -1 0 0 1 0 0 -1 0 1 0 0 0 1 0 "
         in="fbSourceGraphic" />
    </filter>
    <clipPath
       clipPathUnits="userSpaceOnUse"
       id="clipPath3563">
      <path
         style="fill:none;stroke:#000000;stroke-width:0.264583px;stroke-linecap:butt;stroke-linejoin:miter;stroke-opacity:1"
         d="m 90.132353,197.73529 c 0,30.375 0,30.57353 0,30.57353 H 124.875 l -0.69486,-30.27573 z"
         id="path3565" />
    </clipPath>
    <clipPath
       clipPathUnits="userSpaceOnUse"
       id="clipPath4673">
      <path
         id="path4675"
         style="fill:#264eca;stroke:#000000;stroke-width:0"
         d="M 30.970588,90.52941 H 190.97059 v 90 H 30.970588 Z" />
    </clipPath>
    <linearGradient
       inkscape:collect="always"
       xlink:href="#linearGradient4956"
       id="linearGradient4958"
       x1="76.948959"
       y1="135.5294"
       x2="190.9706"
       y2="135.5294"
       gradientUnits="userSpaceOnUse" />
    <linearGradient
       id="b"
       x1="372.732"
       y1="593.352"
       x2="1364.857"
       y2="593.352"
       gradientUnits="userSpaceOnUse"
       gradientTransform="matrix(-.26458 0 0 .26458 422.237 0)" />
    <linearGradient
       id="a"
       gradientUnits="userSpaceOnUse"
       x1="1364.857"
       y1="786.93"
       x2="231"
       y2="786.93"
       gradientTransform="matrix(-.26458 0 0 .26458 422.237 0)" />
    <linearGradient
       id="a-9">
      <stop
         style="stop-color:#c83737;stop-opacity:1"
         offset="0"
         id="stop5193" />
      <stop
         style="stop-color:#c8ba37;stop-opacity:.9921568"
         offset="1"
         id="stop5195" />
    </linearGradient>
    <linearGradient
       xlink:href="#a-9"
       id="c"
       x1="372.73242"
       y1="593.35156"
       x2="1364.8574"
       y2="593.35156"
       gradientUnits="userSpaceOnUse"
       gradientTransform="matrix(-.26458 0 0 .26458 422.23727 0)" />
    <linearGradient
       xlink:href="#a-9"
       id="b-8"
       gradientUnits="userSpaceOnUse"
       x1="1364.8574"
       y1="786.92969"
       x2="231"
       y2="786.92969"
       gradientTransform="matrix(-.26458 0 0 .26458 422.23727 0)" />
  </defs>
  <g
     inkscape:label="Layer 1"
     inkscape:groupmode="layer"
     id="layer1"
     transform="translate(-30.970589,-90.52941)">
    <g
       id="g4966"
       inkscape:export-filename="E:\VS\Daimond\Projects\QuizSystem\Client\quiz-system\public\bACKgROUND.png"
       inkscape:export-xdpi="96"
       inkscape:export-ydpi="96">
      <path
         id="rect1046"
         style="fill:#264eca;stroke:#000000;stroke-width:0"
         d="M 30.970589,90.529411 H 190.97059 V 180.52941 H 30.970589 Z" />
      <g
         id="g2697"
         transform="translate(-59.161764,-47.77941)"
         clip-path="url(#clipPath3563)">
        <circle
           style="fill:#2761ca;fill-opacity:1;stroke:#000000;stroke-width:0"
           id="path1150"
           cx="90.628662"
           cy="228.40808"
           r="30.672794" />
        <circle
           style="fill:#264eca;fill-opacity:1;stroke:#000000;stroke-width:0"
           id="circle1268"
           cx="90.628662"
           cy="228.40808"
           r="23.128677" />
        <circle
           style="fill:#2761ca;fill-opacity:1;stroke:#000000;stroke-width:0"
           id="circle2656"
           cx="90.628662"
           cy="228.40808"
           r="15.78309" />
      </g>
      <path
         style="fill:#2761ca;fill-opacity:1;stroke:url(#linearGradient4958);stroke-width:0;stroke-linecap:butt;stroke-linejoin:miter;stroke-miterlimit:4;stroke-dasharray:none;stroke-opacity:1"
         d="m 77.227942,86.360293 c 17.3802,21.265107 45.031108,24.637427 66.669368,25.191267 38.7605,0.9921 39.95781,23.12372 24.38118,37.12215 -40.38493,36.29318 24.39234,30.26804 20.32445,50.25276 L 207.86029,90.529412 80.007353,86.360293 Z"
         id="path3600"
         sodipodi:nodetypes="csscccc"
         clip-path="url(#clipPath4673)" />
    </g>
    <g
       id="g5191"
       transform="translate(-106.02598,6.8175495)">
      <text
         xml:space="preserve"
         style="font-size:7.05556px;line-height:1.25;font-family:sans-serif;-inkscape-font-specification:'sans-serif, Normal';stroke-width:0.264583"
         x="48.441002"
         y="106.809"
         id="text5176" />
      <path
         style="opacity:1;fill:url(#a);fill-opacity:1;stroke:#000000;stroke-width:0"
         d="m 211.118,58.208 a 150,150 0 0 1 150,150 150,150 0 0 1 -150,150 150,150 0 0 1 -150,-150 150,150 0 0 1 150,-150 z m 0,75 a 75,75 0 0 0 -75,75 75,75 0 0 0 75,75 75,75 0 0 0 75,-75 75,75 0 0 0 -75,-75 z"
         id="path5178" />
      <path
         style="opacity:1;fill:url(#b);fill-opacity:1;stroke:#000000;stroke-width:0"
         d="m 61.119,-44.226 c 41.55,0 75,33.45 75,75 v 177.434 a 75,75 0 0 0 75,75 75,75 0 0 0 75,-75 75,75 0 0 0 -69.396,-74.79 112.5,112.5 0 0 1 106.895,112.29 112.5,112.5 0 0 1 -112.5,112.5 150,150 0 0 1 -150,-150 z"
         id="path5180" />
    </g>
  </g>
</svg>
