<!--Created with Inkscape (http://www.inkscape.org/)--><svg width="210mm" height="297mm" viewBox="0 0 210 297" xmlns:xlink="http://www.w3.org/1999/xlink" xmlns="http://www.w3.org/2000/svg"><defs><linearGradient id="a"><stop style="stop-color:#c83737;stop-opacity:1" offset="0"/><stop style="stop-color:#c8ba37;stop-opacity:.9921568" offset="1"/></linearGradient><linearGradient xlink:href="#a" id="c" x1="372.73242" y1="593.35156" x2="1364.8574" y2="593.35156" gradientUnits="userSpaceOnUse" gradientTransform="matrix(-.26458 0 0 .26458 422.23727 0)"/><linearGradient xlink:href="#a" id="b" gradientUnits="userSpaceOnUse" x1="1364.8574" y1="786.92969" x2="231" y2="786.92969" gradientTransform="matrix(-.26458 0 0 .26458 422.23727 0)"/></defs><path style="opacity:1;fill:url(#b);fill-opacity:1;stroke:#000;stroke-width:0" d="M211.11837 58.208333A150 150 0 0 1 361.11852 208.20848 150 150 0 0 1 211.11837 358.2081 150 150 0 0 1 61.118749 208.20848 150 150 0 0 1 211.11837 58.208333Zm0 75.000067a75 75 0 0 0-75.00006 75.00008 75 75 0 0 0 75.00006 75.00006 75 75 0 0 0 75.00007-75.00006 75 75 0 0 0-75.00007-75.00008z" transform="translate(42.886718 81.072473) scale(.35868)"/><path style="opacity:1;fill:url(#c);fill-opacity:1;stroke:#000;stroke-width:0" d="M61.118749-44.226241c41.549981 0 74.999561 33.450073 74.999561 75.000074V208.20848a75 75 0 0 0 75.00006 75.00006 75 75 0 0 0 75.00007-75.00006 75 75 0 0 0-69.39524-74.79027 112.49999 112.49999 0 0 1 106.89528 112.2903A112.49999 112.49999 0 0 1 211.11837 358.2081 149.99999 149.99999 0 0 1 61.118749 208.20848Z" transform="translate(42.886718 81.072473) scale(.35868)"/></svg>